<svg width="20" height="30" viewBox="0 0 20 30" fill="none" xmlns="http://www.w3.org/2000/svg">
<path d="M10 0C10.9167 0 11.8021 0.112305 12.6562 0.336914C13.5104 0.561523 14.3073 0.874023 15.0469 1.27441C15.7865 1.6748 16.4583 2.16309 17.0625 2.73926C17.6667 3.31543 18.1875 3.9502 18.625 4.64355C19.0625 5.33691 19.401 6.08398 19.6406 6.88477C19.8802 7.68555 20 8.51562 20 9.375C20 10.0488 19.9167 10.6885 19.75 11.2939C19.5833 11.8994 19.3333 12.5098 19 13.125L10 30L1 13.125C0.677083 12.5195 0.432292 11.9141 0.265625 11.3086C0.0989583 10.7031 0.0104167 10.0586 0 9.375C0 8.51562 0.119792 7.68555 0.359375 6.88477C0.598958 6.08398 0.932292 5.33691 1.35938 4.64355C1.78646 3.9502 2.30729 3.32031 2.92188 2.75391C3.53646 2.1875 4.21354 1.69922 4.95312 1.28906C5.69271 0.878906 6.48958 0.561523 7.34375 0.336914C8.19792 0.112305 9.08333 0 10 0ZM10 13.125C10.5521 13.125 11.0677 13.0273 11.5469 12.832C12.026 12.6367 12.4531 12.3682 12.8281 12.0264C13.2031 11.6846 13.4896 11.2891 13.6875 10.8398C13.8854 10.3906 13.9896 9.90234 14 9.375C14 8.85742 13.8958 8.37402 13.6875 7.9248C13.4792 7.47559 13.1927 7.0752 12.8281 6.72363C12.4635 6.37207 12.0417 6.10352 11.5625 5.91797C11.0833 5.73242 10.5625 5.63477 10 5.625C9.44792 5.625 8.93229 5.72266 8.45312 5.91797C7.97396 6.11328 7.54688 6.38184 7.17188 6.72363C6.79688 7.06543 6.51042 7.46094 6.3125 7.91016C6.11458 8.35938 6.01042 8.84766 6 9.375C6 9.89258 6.10417 10.376 6.3125 10.8252C6.52083 11.2744 6.80729 11.6748 7.17188 12.0264C7.53646 12.3779 7.95833 12.6465 8.4375 12.832C8.91667 13.0176 9.4375 13.1152 10 13.125Z" fill="#54B1D7"/>
</svg>
