<svg viewBox="0 0 7 34" fill="none" xmlns="http://www.w3.org/2000/svg">
<path d="M6.6453 14.3041L4.94503 12.6038V6.97341C4.94503 6.70884 4.83997 6.4559 4.65317 6.26917L2.80495 4.42094C2.56469 4.17969 2.46548 3.85091 2.53454 3.51729C2.60261 3.18267 2.82348 2.91903 3.14057 2.79259L5.31558 1.92201C5.82624 1.71774 6.07433 1.13795 5.87007 0.626352C5.66481 0.115687 5.08508 -0.133337 4.57441 0.0718585L2.4004 0.942446C1.4646 1.31698 0.785732 2.12919 0.582396 3.11646C0.380056 4.10286 0.684528 5.11735 1.3966 5.82936L2.95297 7.38572V12.6037L1.2527 14.3039C1.0659 14.4907 0.960844 14.7436 0.960844 15.0082V26.0313H6.93729V15.0082C6.93709 14.7437 6.83203 14.4908 6.6453 14.3041Z" fill="#54B1D7"/>
<path d="M0.960938 28.0236V31.0118C0.960938 32.6595 2.30135 34 3.94916 34C5.5969 34 6.93738 32.6596 6.93738 31.0118V28.0236H0.960938Z" fill="#54B1D7"/>
</svg>
