<svg width="28" height="26" viewBox="0 0 28 26" fill="none" xmlns="http://www.w3.org/2000/svg">
<path d="M26.46 17.8822C24.5467 17.8822 22.6956 17.5933 20.9689 17.0733C20.4244 16.9 19.8178 17.03 19.3978 17.42L16.9556 20.2656C12.5533 18.3156 8.43111 14.6322 6.23778 10.4L9.27111 8.00222C9.69111 7.59778 9.81556 7.03444 9.64444 6.52889C9.06889 4.92556 8.77333 3.20667 8.77333 1.43C8.77333 0.65 8.07333 0 7.23333 0H1.85111C1.01111 0 0 0.346667 0 1.43C0 14.8489 12.0244 26 26.46 26C27.5644 26 28 25.09 28 24.2956V19.3122C28 18.5322 27.3 17.8822 26.46 17.8822Z" fill="#54B1D7"/>
</svg>
