<?xml version="1.0" standalone="no"?>
<!DOCTYPE svg PUBLIC "-//W3C//DTD SVG 20010904//EN"
 "http://www.w3.org/TR/2001/REC-SVG-20010904/DTD/svg10.dtd">
<svg version="1.0" xmlns="http://www.w3.org/2000/svg"
 width="4352.000000pt" height="4352.000000pt" viewBox="0 0 4352.000000 4352.000000"
 preserveAspectRatio="xMidYMid meet">
<metadata>
Created by potrace 1.11, written by Peter Selinger 2001-2013
</metadata>
<g transform="translate(0.000000,4352.000000) scale(0.100000,-0.100000)"
fill="#000000" stroke="none">
<path d="M23479 43516 c-2 -2 -26 -7 -54 -11 -27 -3 -70 -11 -95 -16 -25 -6
-54 -12 -65 -15 -11 -2 -29 -8 -40 -13 -11 -5 -54 -21 -95 -36 -41 -15 -84
-31 -95 -36 -11 -4 -60 -24 -108 -44 -48 -20 -100 -41 -115 -47 -15 -6 -29
-12 -32 -12 -6 -1 -62 -24 -115 -46 -105 -44 -211 -84 -217 -82 -5 1 -8 -3 -8
-9 0 -6 -7 -9 -15 -6 -8 4 -17 2 -19 -2 -3 -4 -27 -16 -53 -26 -26 -10 -61
-23 -78 -31 -16 -7 -77 -31 -135 -54 -58 -23 -124 -50 -147 -61 -24 -10 -48
-19 -53 -19 -6 0 -30 -10 -53 -21 -23 -12 -44 -22 -47 -22 -3 0 -14 -3 -25 -7
-37 -14 -230 -92 -255 -103 -14 -6 -27 -11 -30 -12 -19 -6 -51 -19 -90 -35
-25 -11 -81 -33 -125 -51 -44 -17 -96 -38 -115 -47 -19 -9 -42 -17 -50 -18 -8
-2 -23 -7 -35 -13 -56 -27 -270 -111 -283 -111 -7 0 -12 -5 -12 -12 0 -6 -3
-9 -6 -5 -3 3 -36 -7 -72 -22 -86 -36 -105 -43 -117 -47 -5 -1 -36 -14 -67
-28 -32 -14 -58 -22 -58 -18 0 4 -4 1 -9 -6 -4 -7 -14 -14 -22 -16 -28 -5
-140 -49 -145 -57 -3 -5 -12 -9 -20 -9 -19 0 -191 -79 -304 -139 -8 -4 -24
-12 -35 -18 -40 -20 -121 -66 -145 -83 -14 -9 -32 -20 -40 -23 -8 -4 -28 -16
-45 -27 -16 -11 -39 -24 -50 -29 -11 -5 -29 -18 -40 -28 -11 -10 -38 -30 -60
-43 -22 -13 -46 -30 -53 -37 -7 -7 -16 -13 -20 -13 -4 0 -21 -14 -39 -30 -18
-17 -35 -30 -38 -30 -4 0 -13 -6 -20 -12 -19 -17 -34 -30 -108 -91 -114 -94
-294 -270 -392 -382 -27 -31 -62 -70 -77 -87 -16 -16 -28 -32 -28 -37 0 -5 -7
-15 -17 -22 -15 -13 -89 -108 -123 -159 -8 -12 -21 -28 -27 -36 -7 -7 -13 -17
-13 -22 0 -5 -9 -17 -20 -27 -11 -10 -20 -24 -20 -32 0 -7 -3 -13 -7 -13 -5 0
-20 -21 -36 -48 -35 -61 -45 -76 -84 -139 -18 -28 -33 -54 -33 -58 0 -4 -15
-32 -33 -63 -18 -31 -34 -59 -34 -62 0 -3 -11 -25 -24 -50 -28 -55 -70 -150
-110 -250 -16 -41 -34 -84 -39 -95 -10 -22 -79 -230 -85 -255 -1 -8 -10 -40
-19 -71 -20 -68 -20 -67 -51 -209 -14 -63 -27 -128 -30 -145 -2 -16 -7 -45
-10 -62 -12 -73 -25 -173 -31 -246 -3 -29 -7 -74 -9 -102 -6 -58 -6 -439 -1
-505 12 -151 40 -385 46 -385 3 0 9 -38 11 -70 2 -16 7 -36 12 -42 5 -7 7 -13
4 -13 -3 0 0 -19 5 -42 5 -24 12 -52 14 -63 2 -11 11 -45 19 -75 9 -30 18 -67
21 -82 3 -15 18 -66 34 -112 15 -46 26 -87 22 -90 -3 -3 1 -6 8 -6 7 0 11 -2
8 -6 -3 -3 9 -42 26 -87 18 -45 34 -86 36 -92 20 -72 204 -450 236 -486 8 -9
11 -19 7 -22 -3 -4 -2 -7 4 -7 5 0 18 -18 29 -40 10 -22 22 -40 27 -40 4 0 7
-4 7 -10 0 -10 80 -133 134 -206 17 -23 40 -55 51 -70 11 -15 28 -36 38 -46 9
-10 14 -18 10 -18 -5 0 -3 -4 2 -8 6 -4 33 -34 60 -67 28 -33 66 -78 85 -100
19 -22 511 -517 1092 -1100 l1058 -1060 0 -3338 0 -3339 -1095 -1095 c-602
-602 -1095 -1099 -1095 -1104 0 -5 -7 -9 -15 -9 -8 0 -15 -4 -15 -8 0 -5 -8
-17 -18 -28 -10 -10 -38 -46 -62 -79 -25 -33 -49 -63 -55 -67 -5 -4 -6 -8 -2
-8 5 0 -1 -13 -12 -29 -28 -39 -101 -194 -101 -214 0 -9 -4 -18 -8 -21 -5 -3
-15 -31 -22 -63 -8 -32 -14 -60 -15 -63 -11 -40 -16 -63 -21 -105 -3 -27 -8
-63 -10 -80 -2 -20 -6 -12645 -4 -14201 0 -7 22 -12 56 -13 31 0 60 -3 64 -6
5 -3 11 1 13 7 4 10 6 10 6 1 1 -9 8 -10 24 -4 12 5 31 5 42 1 11 -4 31 -4 44
0 13 3 46 3 72 0 31 -4 50 -2 53 4 3 7 5 6 5 -1 1 -9 8 -10 24 -4 12 5 31 5
42 1 11 -4 31 -4 44 0 13 3 46 3 72 0 31 -4 50 -2 53 4 3 7 5 6 5 -1 1 -9 8
-10 24 -4 12 5 31 5 42 1 11 -4 31 -4 44 0 13 3 46 3 72 0 31 -4 50 -2 53 4 3
7 5 6 5 -1 1 -9 8 -10 24 -4 12 5 31 5 42 1 11 -4 31 -4 44 0 13 3 46 3 72 0
31 -4 50 -2 53 4 3 7 5 6 5 -1 1 -9 8 -10 24 -4 12 5 31 5 42 1 11 -4 31 -4
44 0 13 3 46 3 72 0 31 -4 50 -2 53 4 3 7 5 6 5 -1 1 -9 8 -10 24 -4 12 5 31
5 42 1 11 -4 31 -4 44 0 13 3 46 3 72 0 31 -4 50 -2 53 4 3 7 5 6 5 -1 1 -9 8
-10 24 -4 12 5 31 5 42 1 11 -4 31 -4 44 0 13 3 46 3 72 0 31 -4 50 -2 53 4 3
7 5 6 5 -1 1 -9 8 -10 24 -4 12 5 31 5 42 1 11 -4 31 -4 44 0 13 3 46 3 72 0
31 -4 50 -2 53 4 3 7 5 6 5 -1 1 -9 8 -10 24 -4 12 5 31 5 42 1 11 -4 31 -4
44 0 13 3 46 3 72 0 31 -4 50 -2 53 4 3 7 5 6 5 -1 1 -9 8 -10 24 -4 12 5 31
5 42 1 11 -4 31 -4 44 0 13 3 46 3 72 0 31 -4 50 -2 53 4 3 7 5 6 5 -1 1 -9 8
-10 24 -4 12 5 31 5 42 1 11 -4 31 -4 44 0 13 3 46 3 72 0 31 -4 50 -2 53 4 3
7 5 6 5 -1 1 -9 8 -10 24 -4 12 5 31 5 42 1 11 -4 31 -4 44 0 13 3 46 3 72 0
31 -4 50 -2 53 4 3 7 5 6 5 -1 1 -9 8 -10 24 -4 12 5 31 5 42 1 11 -4 31 -4
44 0 13 3 46 3 72 0 31 -4 50 -2 53 4 3 7 5 6 5 -1 1 -9 8 -10 24 -4 12 5 31
5 42 1 11 -4 31 -4 44 0 13 3 46 3 72 0 31 -4 50 -2 53 4 3 7 5 6 5 -1 1 -9 8
-10 24 -4 12 5 31 5 42 1 11 -4 31 -4 44 0 13 3 46 3 72 0 31 -4 50 -2 53 4 3
7 5 6 5 -1 1 -9 8 -10 24 -4 12 5 31 5 42 1 11 -4 31 -4 44 0 13 3 46 3 72 0
31 -4 50 -2 53 4 3 7 5 6 5 -1 1 -9 8 -10 24 -4 12 5 31 5 42 1 11 -4 31 -4
44 0 13 3 46 3 72 0 31 -4 50 -2 53 4 3 7 5 6 5 -1 1 -9 8 -10 24 -4 12 5 31
5 42 1 11 -4 31 -4 44 0 13 3 46 3 72 0 31 -4 50 -2 53 4 3 7 5 6 5 -1 1 -9 8
-10 24 -4 12 5 31 5 42 1 11 -4 31 -4 44 0 13 3 46 3 72 0 31 -4 50 -2 53 4 3
7 5 6 5 -1 1 -9 8 -10 24 -4 12 5 31 5 42 1 11 -4 31 -4 44 0 13 3 46 3 72 0
31 -4 50 -2 53 4 3 7 5 6 5 -1 1 -9 8 -10 24 -4 12 5 31 5 42 1 11 -4 31 -4
44 0 13 3 46 3 72 0 31 -4 50 -2 53 4 3 7 5 6 5 -1 1 -9 8 -10 24 -4 12 5 31
5 42 1 11 -4 31 -4 44 0 13 3 46 3 72 0 31 -4 50 -2 53 4 3 7 5 6 5 -1 1 -9 8
-10 24 -4 12 5 31 5 42 1 11 -4 31 -4 44 0 13 3 46 3 72 0 31 -4 50 -2 53 4 3
7 5 6 5 -1 1 -9 8 -10 24 -4 12 5 31 5 42 1 11 -4 31 -4 44 0 13 3 46 3 72 0
31 -4 50 -2 53 4 3 7 5 6 5 -1 1 -9 8 -10 24 -4 12 5 31 5 42 1 11 -4 31 -4
44 0 13 3 46 3 72 0 31 -4 50 -2 53 4 3 7 5 6 5 -1 1 -9 8 -10 24 -4 12 5 31
5 42 1 11 -4 31 -4 44 0 13 3 46 3 72 0 31 -4 50 -2 53 4 3 7 5 6 5 -1 1 -9 8
-10 24 -4 12 5 31 5 42 1 11 -4 31 -4 44 0 13 3 46 3 72 0 31 -4 50 -2 53 4 3
7 5 6 5 -1 1 -9 8 -10 24 -4 12 5 31 5 42 1 11 -4 31 -4 44 0 13 3 46 3 72 0
31 -4 50 -2 53 4 3 7 5 6 5 -1 1 -9 8 -10 24 -4 12 5 31 5 42 1 11 -4 24 -5
29 -2 8 4 47 4 169 -1 26 -1 49 3 51 8 3 6 5 4 5 -2 1 -9 8 -10 24 -4 12 5 31
5 42 1 11 -4 31 -4 44 0 13 3 46 3 72 0 31 -4 50 -2 53 4 3 7 5 6 5 -1 1 -9 8
-10 24 -4 12 5 31 5 42 1 11 -4 24 -5 29 -2 4 2 37 4 73 3 l64 -1 0 42 c-1 24
-1 59 -1 78 0 19 0 63 -1 97 0 34 2 67 6 72 3 6 2 11 -2 11 -5 0 -6 29 -3 65
3 36 3 65 0 65 -7 0 -4 75 4 88 3 6 3 13 -2 15 -4 3 -5 37 -2 75 3 39 2 81 -1
94 -3 13 -2 35 2 51 4 15 4 27 1 27 -4 0 -5 29 -2 65 3 36 3 65 0 65 -7 0 -4
75 4 88 3 6 3 13 -2 15 -4 3 -5 37 -2 75 3 39 2 81 -1 94 -3 13 -2 35 2 51 5
16 4 27 -2 27 -6 0 -8 4 -5 9 5 7 7 107 5 181 0 8 0 44 0 80 0 36 0 72 0 80 0
8 0 44 0 80 0 36 0 72 0 80 0 8 0 44 0 80 2 190 2 211 0 287 0 34 2 67 6 72 3
6 2 11 -2 11 -5 0 -6 29 -3 65 3 36 3 65 0 65 -7 0 -4 75 4 88 3 6 3 13 -2 15
-4 3 -5 37 -2 75 3 39 2 81 -1 94 -3 13 -2 35 2 51 4 15 4 27 1 27 -4 0 -5 29
-2 65 3 36 3 65 0 65 -7 0 -4 75 4 88 3 6 3 13 -2 15 -4 3 -5 37 -2 75 3 39 2
81 -1 94 -3 13 -2 35 2 51 5 16 4 27 -2 27 -6 0 -8 4 -5 9 5 7 7 107 5 181 0
8 0 44 0 80 0 36 0 72 0 80 0 8 0 44 0 80 0 36 0 72 0 80 0 8 0 44 0 80 2 190
2 211 0 287 0 34 2 67 6 72 3 6 2 11 -2 11 -5 0 -6 29 -3 65 3 36 3 65 0 65
-7 0 -4 75 4 88 3 6 3 13 -2 15 -4 3 -5 37 -2 75 3 39 2 81 -1 94 -3 13 -2 35
2 51 4 15 4 27 1 27 -4 0 -5 29 -2 65 3 36 3 65 0 65 -7 0 -4 75 4 88 3 6 3
13 -2 15 -4 3 -5 37 -2 75 3 39 2 81 -1 94 -3 13 -2 35 2 51 5 16 4 27 -2 27
-6 0 -8 4 -5 9 5 7 7 107 5 181 0 8 0 44 0 80 0 36 0 72 0 80 0 8 0 44 0 80 0
36 0 72 0 80 0 8 0 44 0 80 2 190 2 211 0 287 0 34 2 67 6 72 3 6 2 11 -2 11
-5 0 -6 29 -3 65 3 36 3 65 0 65 -7 0 -4 75 4 88 3 6 3 13 -2 15 -4 3 -5 37
-2 75 3 39 2 81 -1 94 -3 13 -2 35 2 51 4 15 4 27 1 27 -4 0 -5 29 -2 65 3 36
3 65 0 65 -7 0 -4 75 4 88 3 6 3 13 -2 15 -4 3 -5 37 -2 75 3 39 2 81 -1 94
-3 13 -2 35 2 51 5 16 4 27 -2 27 -6 0 -8 4 -5 9 5 7 7 107 5 181 0 8 0 44 0
80 0 36 0 72 0 80 0 8 0 44 0 80 0 36 0 72 0 80 -1 24 0 153 1 175 1 11 1 27
1 35 -3 96 -2 141 4 149 3 6 2 11 -2 11 -5 0 -6 29 -3 65 3 36 3 65 0 65 -7 0
-3 77 4 97 3 7 2 13 -2 13 -4 0 -5 29 -2 65 3 36 3 65 0 65 -3 0 -5 38 -5 84
0 46 4 82 9 79 4 -3 5 4 1 16 -3 12 -6 43 -6 69 2 79 2 115 0 179 0 34 2 67 6
72 3 6 2 11 -2 11 -5 0 -6 29 -3 65 3 36 3 65 0 65 -3 0 -4 21 -2 47 1 27 3
55 3 63 -1 8 -1 43 -2 77 0 34 2 67 6 72 3 6 2 11 -2 11 -5 0 -6 29 -3 65 3
36 3 65 0 65 -7 0 -3 77 4 97 3 7 2 13 -2 13 -4 0 -5 29 -2 65 3 36 3 65 0 65
-3 0 -5 38 -5 84 0 46 4 82 9 79 4 -3 5 4 1 16 -3 12 -6 43 -6 69 2 79 2 115
0 179 0 34 2 67 6 72 3 6 2 11 -2 11 -5 0 -6 29 -3 65 3 36 3 65 0 65 -3 0 -4
21 -2 47 1 27 3 55 3 63 -1 8 -1 43 -2 77 0 34 2 67 6 72 3 6 2 11 -2 11 -5 0
-6 29 -3 65 3 36 3 65 0 65 -7 0 -3 77 4 97 3 7 2 13 -2 13 -4 0 -5 29 -2 65
3 36 3 65 0 65 -3 0 -5 38 -5 84 0 46 4 82 9 79 4 -3 5 4 1 16 -3 12 -6 43 -6
69 2 79 2 115 0 179 0 34 2 67 6 72 3 6 2 11 -2 11 -5 0 -6 29 -3 65 3 36 3
65 0 65 -3 0 -4 21 -2 47 1 27 3 55 3 63 -1 8 -1 43 -2 77 0 34 2 67 6 72 3 6
2 11 -2 11 -5 0 -6 29 -3 65 3 36 3 65 0 65 -7 0 -3 77 4 97 3 7 2 13 -2 13
-4 0 -5 29 -2 65 3 36 3 65 0 65 -3 0 -5 38 -5 84 0 46 4 82 9 79 4 -3 5 4 1
16 -3 12 -6 43 -6 69 2 79 2 115 0 179 0 34 2 67 6 72 3 6 2 11 -2 11 -5 0 -6
29 -3 65 3 36 3 65 0 65 -3 0 -4 21 -2 47 1 27 3 55 3 63 -1 8 -1 43 -2 77 0
34 2 67 6 72 3 6 2 11 -2 11 -5 0 -6 29 -3 65 3 36 3 65 0 65 -7 0 -3 77 4 97
3 7 2 13 -2 13 -4 0 -5 29 -2 65 3 36 3 65 0 65 -3 0 -5 38 -5 84 0 46 4 82 9
79 4 -3 5 4 1 16 -3 12 -6 43 -6 69 2 79 2 115 0 179 0 34 2 67 6 72 3 6 2 11
-2 11 -5 0 -6 29 -3 65 3 36 3 65 0 65 -3 0 -5 48 -6 108 0 98 -3 130 -19 217
-12 64 -29 130 -37 140 -4 5 -8 16 -8 25 0 15 -27 80 -50 122 -6 10 -10 22
-10 27 0 13 -95 167 -133 216 -55 70 -71 86 -1189 1204 l-1098 1098 -3 3679
c-2 2024 -6 3697 -10 3719 -3 22 -12 63 -19 90 -7 28 -13 53 -14 58 -1 4 -3 9
-4 12 -1 3 -3 8 -4 13 -12 44 -32 101 -43 117 -7 11 -13 27 -13 36 0 9 -7 22
-15 29 -8 6 -13 15 -12 18 3 11 -27 72 -35 72 -5 0 -8 7 -8 15 0 8 -4 15 -10
15 -5 0 -10 6 -10 13 0 40 -226 273 -1339 1387 -1221 1222 -1329 1333 -1370
1413 -8 15 -18 27 -23 27 -4 0 -8 9 -8 20 0 11 -3 20 -8 20 -6 0 -64 111 -68
130 0 3 -6 18 -12 33 -7 16 -19 52 -28 80 -9 29 -18 59 -21 67 -3 8 -7 22 -8
30 -38 249 -36 392 6 565 5 22 12 49 14 59 8 33 26 90 35 111 14 30 28 69 26
75 0 3 10 20 22 38 13 18 25 38 26 45 5 36 130 202 216 287 87 87 234 200 258
200 6 0 12 3 14 8 3 6 74 44 88 47 3 0 31 13 64 28 32 15 62 27 67 27 5 0 17
4 27 9 9 5 53 24 97 41 44 17 94 37 110 44 17 8 53 22 80 32 28 10 61 25 75
33 13 9 26 15 27 13 4 -4 87 27 123 45 14 7 33 13 43 13 9 0 17 4 17 8 0 5 6
9 13 9 6 0 28 7 47 16 19 9 94 39 165 67 72 28 144 57 160 64 77 34 91 40 109
43 11 2 24 7 30 12 6 4 20 11 31 14 11 3 70 26 130 51 61 26 112 47 115 48 9
1 54 18 75 28 11 5 56 23 100 40 44 18 127 51 185 75 58 23 128 50 155 60 28
10 55 22 61 27 7 5 21 10 32 13 11 2 41 14 68 26 27 13 55 22 62 21 6 -2 12 2
12 8 0 5 7 10 15 10 8 0 34 8 58 19 23 10 74 31 112 46 39 15 79 31 90 35 11
5 45 19 75 30 30 12 69 28 85 35 17 7 62 26 100 40 100 39 215 96 215 106 0 5
3 8 8 7 8 -3 53 25 93 57 14 11 38 29 53 40 44 31 154 144 200 205 54 70 109
156 106 166 -1 4 3 10 9 13 9 6 49 91 51 109 1 4 7 16 14 27 13 21 65 195 72
243 16 116 25 352 13 352 -3 0 -6 15 -7 33 -3 127 -90 378 -174 504 -15 23
-28 46 -28 52 0 6 -3 11 -7 11 -5 0 -19 17 -33 38 -39 58 -84 106 -210 222
-115 107 -389 234 -585 271 -56 10 -348 22 -356 15z"/>
<path d="M18513 5598 c2 -1129 7 -2078 10 -2108 18 -160 32 -260 42 -310 3
-14 7 -40 10 -59 2 -18 7 -41 9 -50 3 -9 7 -28 10 -44 3 -15 7 -35 10 -45 3
-9 7 -28 10 -42 3 -14 8 -36 11 -50 3 -14 7 -29 8 -35 2 -5 6 -16 10 -22 5 -7
6 -13 3 -13 -3 0 -1 -12 5 -27 6 -16 13 -37 15 -47 13 -66 107 -325 161 -446
69 -153 155 -319 209 -407 8 -13 15 -26 16 -30 2 -11 180 -275 195 -291 7 -8
18 -23 24 -34 6 -12 20 -31 30 -42 11 -12 56 -66 101 -121 73 -90 328 -352
418 -430 187 -162 574 -435 617 -435 7 0 13 -3 13 -7 0 -5 23 -19 50 -32 28
-14 50 -29 50 -33 0 -4 3 -7 8 -6 4 1 57 -22 117 -51 115 -55 155 -74 167 -75
3 -1 10 -4 14 -8 4 -5 16 -8 26 -8 10 0 18 -4 18 -9 0 -4 21 -14 48 -21 26 -7
52 -16 57 -20 10 -7 193 -69 218 -74 7 -2 38 -11 71 -20 32 -10 66 -20 75 -21
9 -2 16 -4 16 -5 0 -1 7 -3 15 -5 8 -2 35 -8 60 -14 25 -7 56 -13 70 -16 14
-2 45 -8 70 -14 50 -11 122 -23 160 -26 14 -1 36 -5 50 -8 84 -20 264 -31 520
-31 237 0 426 10 515 29 17 3 48 8 70 10 22 2 51 6 65 10 14 3 41 8 60 11 19
3 55 10 80 16 25 5 56 12 70 15 14 3 30 6 35 7 6 2 24 6 40 10 17 4 36 9 43
12 7 2 13 3 15 3 1 0 25 8 52 16 28 9 59 18 69 20 11 3 63 19 115 37 53 18 99
31 104 30 4 -1 7 2 7 8 0 5 7 10 15 10 8 0 55 17 104 39 50 21 93 36 96 33 3
-3 5 0 5 6 0 7 5 12 11 12 16 0 203 92 207 102 2 4 10 8 18 8 14 0 54 19 64
31 3 3 17 12 31 20 15 8 42 23 60 33 40 22 254 161 272 176 6 6 44 34 82 62
39 29 75 59 82 67 7 9 13 13 13 8 0 -4 8 1 18 10 52 50 93 83 102 83 6 0 8 5
5 10 -3 6 -1 10 5 10 25 0 374 363 466 485 21 28 42 55 46 60 60 76 88 115 88
123 0 6 4 12 8 14 9 3 112 153 112 163 0 3 5 11 11 18 13 15 49 77 81 137 13
25 29 51 36 58 6 7 12 22 12 33 0 10 4 19 8 19 8 0 24 34 104 210 50 108 98
229 102 251 1 8 4 19 7 24 4 6 12 28 18 50 7 22 16 49 21 60 10 25 39 123 43
150 2 11 7 27 10 35 3 8 9 29 13 45 4 17 8 35 10 40 1 6 5 25 9 44 3 19 8 37
10 40 2 4 6 26 10 51 4 25 8 47 10 50 2 4 6 26 9 51 3 24 8 55 11 69 3 14 8
45 10 70 3 25 6 54 9 65 4 23 15 165 21 277 2 43 6 82 10 88 3 5 3 10 -2 10
-8 0 -8 88 1 97 2 2 0 18 -4 34 -5 17 -5 31 1 35 5 3 7 10 3 15 -3 6 -5 34 -5
62 2 88 2 110 0 173 -1 34 1 66 5 72 4 7 4 12 -1 12 -4 0 -6 34 -3 75 3 44 1
75 -4 75 -6 0 -5 5 1 11 7 7 8 21 3 39 -4 15 -4 33 0 40 4 7 4 26 0 41 -5 16
-5 31 0 34 4 3 5 20 1 38 -5 18 -6 41 -4 52 4 25 5 74 2 151 -1 34 1 66 5 72
4 7 4 12 -1 12 -4 0 -6 34 -3 75 3 44 1 75 -4 75 -6 0 -5 5 1 11 7 7 8 21 3
40 -5 16 -5 31 0 34 5 3 5 19 0 35 -5 18 -5 32 1 36 5 3 7 10 3 15 -3 6 -5 34
-5 62 2 88 2 110 0 173 -1 34 1 66 5 72 4 7 4 12 -1 12 -4 0 -6 34 -3 75 3 44
1 75 -4 75 -6 0 -5 5 1 11 7 7 8 21 3 39 -4 15 -4 33 0 40 4 7 4 26 0 41 -5
16 -5 31 0 34 4 3 5 20 1 38 -5 18 -6 41 -4 52 4 25 5 74 2 151 -1 34 1 66 5
72 4 7 4 12 -1 12 -4 0 -6 34 -3 75 3 44 1 75 -4 75 -6 0 -5 5 1 11 7 7 8 21
3 40 -5 16 -5 31 0 34 5 3 5 19 0 35 -5 18 -5 32 1 36 5 3 7 10 3 15 -3 6 -5
34 -5 62 2 88 2 110 0 173 -1 34 1 66 5 72 4 7 4 12 -1 12 -4 0 -6 34 -3 75 3
44 1 75 -4 75 -6 0 -5 5 1 11 7 7 8 21 3 39 -4 15 -4 33 0 40 4 7 4 26 0 41
-5 16 -5 31 0 34 4 3 5 20 1 38 -5 18 -6 41 -4 52 4 25 5 74 2 151 -1 34 1 66
5 72 4 7 4 12 -1 12 -4 0 -6 34 -3 75 3 41 2 75 -1 75 -3 0 -4 11 -1 25 l4 25
-3826 0 -3827 0 4 -2052z"/>
</g>
</svg>
